<svg version="1.1" id="Layer_1" xmlns="http://www.w3.org/2000/svg" xmlns:xlink="http://www.w3.org/1999/xlink" x="0px" y="0px"
	 width="100%" viewBox="0 0 1254 1254" enable-background="new 0 0 1254 1254" xml:space="preserve">
<path fill="#101112" opacity="1.000000" stroke="none" 
	d="
M691.000000,1255.000000 
	C462.166656,1255.000000 233.833328,1254.989380 5.500042,1255.093506 
	C1.750798,1255.095215 0.906156,1254.249023 0.907049,1250.500000 
	C1.005925,835.500000 1.005925,420.500000 0.907049,5.500022 
	C0.906156,1.750941 1.750940,0.906157 5.500022,0.907050 
	C420.500000,1.005918 835.500000,1.005918 1250.500000,0.907050 
	C1254.249023,0.906157 1255.093994,1.750940 1255.093018,5.500021 
	C1254.994141,420.500000 1254.994141,835.500000 1255.093018,1250.500000 
	C1255.093872,1254.249023 1254.249268,1255.095947 1250.500000,1255.093750 
	C1064.166626,1254.986938 877.833313,1255.000000 691.000000,1255.000000 
z"/>
<path fill="#DAB67E" opacity="1.000000" stroke="none" 
	d="
M954.514893,472.188049 
	C966.966370,452.129730 983.647217,437.791199 1006.104492,430.616730 
	C1012.201294,428.668976 1018.447998,427.730255 1024.802734,428.437653 
	C1039.324341,430.054199 1047.410645,438.265350 1049.269043,452.962067 
	C1049.453979,454.425354 1049.674194,455.884186 1050.005249,458.256012 
	C1056.100342,447.625671 1062.243896,438.017426 1070.015503,429.575470 
	C1083.878052,414.517303 1100.579834,404.859680 1121.353638,404.041992 
	C1137.423828,403.409454 1149.755981,413.284332 1154.012329,428.822998 
	C1157.577148,441.837219 1155.916626,454.629761 1152.321045,467.247803 
	C1145.427612,491.438568 1138.262451,515.551941 1131.210083,539.697388 
	C1129.431885,545.785706 1127.902954,551.940552 1127.588013,558.293091 
	C1127.440430,561.271667 1127.477539,564.529175 1130.611694,566.239502 
	C1133.799561,567.979187 1136.453735,566.065491 1138.835693,564.273315 
	C1143.947510,560.427185 1147.920288,555.474487 1151.562500,550.275330 
	C1163.012573,533.931152 1171.042114,515.798279 1178.983887,497.621918 
	C1179.968018,495.369720 1181.038452,493.155304 1182.274170,490.478180 
	C1185.625610,493.605316 1188.510254,496.346954 1191.456665,499.020630 
	C1192.594849,500.053406 1192.805298,500.965790 1192.161987,502.482941 
	C1181.682495,527.195679 1171.326538,551.991516 1154.108398,573.037659 
	C1144.205200,585.142517 1132.981567,595.730957 1117.993042,601.435730 
	C1108.438232,605.072449 1098.618530,606.339172 1088.606812,603.881836 
	C1076.799194,600.983887 1069.061890,593.869812 1065.999878,581.759766 
	C1062.779175,569.022827 1064.720825,556.542908 1067.866821,544.296814 
	C1074.074463,520.132629 1080.994507,496.152374 1087.411499,472.040527 
	C1089.461792,464.336090 1091.480469,456.551971 1091.364258,448.464783 
	C1091.318481,445.283386 1091.243774,441.818207 1087.781494,440.296661 
	C1084.479370,438.845551 1081.607910,440.626587 1079.034668,442.564270 
	C1072.745361,447.300385 1068.772461,453.874420 1065.150024,460.651337 
	C1054.377686,480.805054 1048.443481,502.674225 1043.168091,524.688660 
	C1035.452759,556.884766 1028.236816,589.200806 1020.861389,621.477905 
	C1020.256042,624.127075 1019.221191,625.687317 1016.263306,626.410400 
	C996.377869,631.271912 976.528687,636.287109 956.718445,641.446838 
	C952.328796,642.590210 952.479370,640.888794 953.247192,637.580627 
	C963.301941,594.261414 973.306030,550.930359 983.260498,507.588013 
	C985.794128,496.556641 988.278442,485.495087 988.697571,474.123260 
	C988.826355,470.629944 988.944031,466.665619 985.083801,465.010010 
	C981.106262,463.304169 978.031189,465.914307 975.396179,468.547180 
	C965.405518,478.529663 959.375061,490.976807 953.903320,503.721466 
	C945.057922,524.323853 939.476746,545.952393 934.369995,567.689636 
	C928.084961,594.442139 922.125671,621.271484 916.126892,648.090332 
	C915.596313,650.462280 914.802185,651.760132 912.244446,652.419312 
	C892.744263,657.445312 873.281433,662.617554 853.830872,667.833496 
	C849.929077,668.879822 848.629700,668.444214 849.715210,663.852417 
	C851.662415,655.616272 852.886230,647.209045 854.064880,638.498657 
	C840.585754,656.708740 825.810547,673.389771 803.536194,681.358093 
	C798.166626,683.278870 792.652649,684.369202 786.914917,684.390869 
	C769.910583,684.455017 759.745667,675.552368 757.697266,658.678833 
	C757.477966,656.871887 757.348511,655.053955 757.154602,653.000122 
	C755.028442,653.648376 754.916077,655.509277 754.285217,656.834839 
	C749.400391,667.098572 743.977417,677.016846 736.358337,685.566772 
	C725.895081,697.308350 712.692139,703.789978 697.161926,705.353760 
	C679.979858,707.083862 666.168945,699.061951 658.705078,683.417236 
	C656.002930,677.753235 654.138306,671.785645 652.584106,665.142151 
	C647.722168,673.295288 643.319397,681.091492 638.520508,688.635681 
	C629.874390,702.227966 619.618408,714.436829 606.493896,723.987122 
	C596.059082,731.580200 584.701111,736.904968 571.522339,737.192261 
	C553.669617,737.581543 543.036682,728.823853 539.786499,711.236267 
	C539.433533,709.326355 539.144287,707.404785 538.592163,704.086487 
	C533.789795,713.024109 528.961426,720.521362 523.529785,727.588074 
	C511.149323,743.695374 496.111359,756.139771 476.035065,761.511414 
	C471.342316,762.766968 466.588654,763.563721 461.728119,763.346008 
	C445.291992,762.609924 435.677094,752.925537 434.952057,736.466858 
	C434.895447,735.181396 434.806305,733.897400 434.728302,732.543823 
	C432.598907,732.571289 432.705658,734.306030 432.202789,735.323608 
	C427.105011,745.639465 421.775146,755.783936 414.342560,764.700928 
	C407.891235,772.440735 400.001282,778.215088 390.689697,781.777039 
	C363.606354,792.137451 339.832153,780.314514 331.625000,752.507324 
	C327.056396,737.028015 326.944519,721.237976 329.909027,705.529785 
	C336.836060,668.824951 350.723083,635.328186 376.681488,607.699524 
	C395.476624,587.695129 417.910278,575.218506 446.066223,575.234619 
	C450.523743,575.237122 455.109558,575.659729 459.416290,576.753540 
	C480.674286,582.152832 500.304443,577.228882 519.328003,567.894775 
	C522.296814,566.438110 525.253418,564.956360 528.849792,563.171509 
	C528.668152,568.745178 527.088257,573.376099 525.966919,578.064331 
	C516.901123,615.970154 507.737030,653.852539 498.722809,691.770569 
	C496.835175,699.710999 495.550995,707.792908 495.845703,716.007202 
	C495.952515,718.983704 496.057343,722.312012 499.262482,723.801819 
	C502.557343,725.333313 505.531342,723.681030 508.019440,721.654724 
	C517.560974,713.883728 523.374695,703.342285 528.936768,692.694336 
	C540.853638,669.880493 547.135559,645.199585 552.855042,620.307434 
	C566.203674,562.212280 579.728638,504.157715 593.192932,446.089203 
	C593.671997,444.023163 593.990356,442.133087 596.673767,441.255798 
	C617.882385,434.322296 638.714478,426.341370 659.523987,418.304474 
	C660.132812,418.069336 660.800903,417.987793 662.225647,417.647064 
	C659.947632,427.719177 657.808411,437.378662 655.575867,447.016541 
	C638.574280,520.411499 621.420471,593.772156 605.538330,667.420898 
	C603.925781,674.898376 602.425659,682.433960 602.773376,690.162048 
	C602.901611,693.011902 603.047791,696.042297 606.004578,697.549561 
	C609.007385,699.080200 611.452698,697.233154 613.795776,695.634094 
	C618.125854,692.678650 621.449707,688.721313 624.489380,684.523621 
	C635.414307,669.436646 643.788940,652.918579 649.643311,635.354919 
	C653.037537,625.171753 654.032288,614.212891 657.094482,603.818481 
	C665.491516,575.315186 678.451965,549.292725 698.710815,527.270752 
	C714.891296,509.682068 734.156006,497.572937 758.436157,495.031189 
	C767.235229,494.110046 776.133545,494.303009 784.787354,496.294983 
	C805.906006,501.156189 825.393555,496.505890 844.118469,486.771393 
	C846.472595,485.547546 848.864441,484.396332 851.657654,483.002563 
	C852.023743,487.557343 850.547485,491.418060 849.595398,495.293335 
	C840.271179,533.244202 830.648621,571.123657 822.505127,609.354309 
	C820.909851,616.843506 819.584595,624.390259 819.319458,632.061157 
	C819.239929,634.362610 819.470398,636.734619 819.968140,638.983765 
	C821.029236,643.779053 824.031189,645.161499 828.538452,643.058350 
	C831.922546,641.479309 834.571472,638.915222 837.002808,636.157166 
	C853.613586,617.315186 863.073669,594.911865 868.794250,570.833313 
	C876.487488,538.451050 883.736938,505.963257 891.170410,473.519318 
	C891.701294,471.202301 892.353577,469.292572 895.130859,468.446198 
	C915.528625,462.230103 935.294495,454.200958 955.437134,447.247192 
	C956.524231,446.871887 957.648132,446.603333 959.309753,446.125519 
	C958.160706,454.854340 955.283752,462.832336 953.465637,471.452606 
	C953.590454,472.246948 953.893005,472.414520 954.514893,472.188049 
z"/>
<path fill="#D9B57D" opacity="1.000000" stroke="none" 
	d="
M152.739868,655.071899 
	C153.707642,655.485901 154.324234,655.744080 154.912918,656.055054 
	C165.508575,661.653625 165.502213,662.192993 159.085724,671.693787 
	C141.659332,697.496765 133.161758,725.994202 135.137863,757.133545 
	C136.366638,776.496521 143.564331,793.423950 159.572968,805.527222 
	C175.707306,817.725586 193.489273,819.644287 212.605118,813.943970 
	C238.483994,806.226746 259.025940,778.813477 258.310150,752.320801 
	C257.963348,739.485779 252.463120,728.561829 245.223175,718.349976 
	C238.136566,708.354370 229.268707,700.037476 220.278412,691.821045 
	C207.474518,680.119324 194.756500,668.280151 185.302338,653.558472 
	C166.736206,624.647827 161.571060,593.378418 172.945114,560.913635 
	C185.022217,526.442200 212.108398,508.496063 246.621490,501.134308 
	C265.857849,497.031158 285.120514,497.835205 303.364502,506.390564 
	C348.182587,527.407654 344.517212,581.833069 313.863678,605.607971 
	C297.794128,618.071533 278.795197,616.269897 264.203430,601.715454 
	C261.776367,599.294556 261.821564,597.769897 263.839508,595.137451 
	C272.849518,583.383850 279.884491,570.648804 282.423920,555.792664 
	C283.503113,549.479309 283.566864,543.222900 282.257904,536.945984 
	C279.612000,524.258118 269.793427,517.407898 256.942322,519.318970 
	C240.648026,521.742126 227.450943,535.212524 224.137070,553.346008 
	C219.893250,576.567993 228.890579,595.741455 243.209961,613.071838 
	C250.451370,621.835876 259.085846,629.222046 267.585510,636.716125 
	C283.071899,650.370422 295.960785,665.914307 302.179535,685.987793 
	C313.140594,721.368958 306.162262,753.789429 285.077087,783.548035 
	C252.999680,828.820496 185.333694,847.546753 134.691254,825.073792 
	C106.470955,812.550842 85.604797,792.629395 77.954544,761.987793 
	C70.144920,730.708008 74.597130,701.044922 94.948784,675.012939 
	C106.356216,660.421570 121.376297,652.457886 140.212875,652.527344 
	C144.410629,652.542847 148.468552,653.394409 152.739868,655.071899 
z"/>
<path fill="#E2C18A" opacity="1.000000" stroke="none" 
	d="
M460.060059,1036.948730 
	C411.736206,1016.926941 368.374756,989.610413 329.182495,955.637024 
	C311.520660,940.327087 295.278473,923.583679 280.431793,905.530518 
	C272.376770,895.735718 276.173157,882.330261 287.678955,879.633301 
	C294.057983,878.138123 299.386505,880.254822 303.555145,885.449097 
	C323.976288,910.894348 346.904602,933.823792 372.657257,953.884705 
	C434.560516,1002.106445 504.188080,1032.333130 582.017212,1043.046875 
	C682.317993,1056.854370 776.024963,1036.677124 862.910156,985.711975 
	C936.134766,942.759827 991.476074,882.222412 1031.270630,807.404541 
	C1052.680298,767.151978 1067.487671,724.534973 1075.971680,679.729309 
	C1076.881470,674.924744 1079.773071,672.302246 1083.535767,672.779480 
	C1087.431152,673.273560 1089.562256,676.806946 1088.843140,681.996460 
	C1084.574585,712.795715 1076.802124,742.743958 1065.618774,771.704773 
	C1023.906006,879.725586 952.728333,962.229248 850.918884,1017.815247 
	C797.603210,1046.924438 740.384338,1063.897217 680.039307,1069.687988 
	C604.239807,1076.962036 530.974243,1065.805786 460.060059,1036.948730 
z"/>
<path fill="#E3C18A" opacity="1.000000" stroke="none" 
	d="
M1023.857178,380.994995 
	C1017.955139,379.834961 1014.620728,376.198120 1011.917664,371.504761 
	C989.764465,333.040314 961.926086,299.186859 928.465759,270.063629 
	C865.641357,215.382492 793.345947,180.290588 710.820740,167.967896 
	C600.044800,151.426804 496.186462,171.902847 400.845978,230.937149 
	C336.402649,270.840088 286.348022,325.021027 249.590286,391.405823 
	C240.781631,407.314301 233.264679,423.808014 226.358826,440.601196 
	C224.312683,445.576843 221.520844,447.416901 217.836594,445.750275 
	C213.599060,443.833435 213.487274,440.467590 214.857559,436.511841 
	C225.316162,406.319733 239.388229,377.865265 256.434204,350.901428 
	C307.826324,269.607697 378.487488,211.277939 467.264496,174.702240 
	C514.157532,155.382538 563.051208,144.479065 613.561340,140.836899 
	C702.447693,134.427490 786.528503,151.387589 865.339172,193.347336 
	C938.102173,232.087280 995.300293,287.348328 1038.788940,357.119720 
	C1042.506958,363.084778 1042.850586,369.101685 1038.981323,374.939270 
	C1035.545288,380.123413 1030.410278,382.046143 1023.857178,380.994995 
z"/>
<path fill="#E2C18A" opacity="1.000000" stroke="none" 
	d="
M579.006348,848.136047 
	C661.077637,868.749390 735.179382,852.768127 801.690125,801.536987 
	C834.799500,776.033875 858.944885,743.265686 876.750244,705.656860 
	C877.105957,704.905334 877.394165,704.118347 877.793213,703.391418 
	C879.525879,700.235718 882.133850,698.719238 885.664856,699.904236 
	C889.518127,701.197449 890.767151,704.415588 889.629333,707.925598 
	C887.890015,713.291077 885.839783,718.615845 883.325989,723.661133 
	C837.741577,815.147766 764.942261,869.107605 662.774597,879.965881 
	C593.023438,887.378967 529.524841,868.762024 473.151489,826.695312 
	C469.817749,824.207581 466.585632,821.559082 463.493469,818.777283 
	C456.773193,812.731384 456.027344,803.959045 461.519043,797.403809 
	C466.450806,791.516724 475.339752,790.817200 482.276978,795.957153 
	C486.423309,799.029114 490.328369,802.424377 494.411865,805.583923 
	C519.732056,825.175110 547.783630,839.361023 579.006348,848.136047 
z"/>
<path fill="#E2C189" opacity="1.000000" stroke="none" 
	d="
M705.260132,357.552185 
	C605.455933,335.837494 520.063293,360.852844 449.401093,434.455994 
	C440.393646,443.838318 432.785187,454.424042 425.793610,465.413849 
	C425.078644,466.537659 424.330597,467.640930 423.579346,468.741089 
	C421.365204,471.983673 418.354675,472.993195 414.940063,471.067230 
	C411.428558,469.086548 410.966919,465.785919 412.740875,462.425232 
	C416.472168,455.356476 420.557159,448.488831 425.148041,441.927979 
	C453.492249,401.421844 490.665131,371.443726 535.827209,351.981995 
	C615.691711,317.565887 695.380371,318.313080 774.119446,356.167572 
	C795.564026,366.477234 814.988586,379.937134 832.331299,396.297272 
	C837.244507,400.932007 840.887573,406.229065 839.136658,413.447601 
	C836.391724,424.764008 823.627686,428.519348 815.405945,420.347778 
	C786.964355,392.079926 753.493713,372.245667 715.289612,360.286743 
	C712.115845,359.293274 708.870361,358.528931 705.260132,357.552185 
z"/>
<path fill="#D7B57D" opacity="1.000000" stroke="none" 
	d="
M447.857269,923.903687 
	C459.345947,915.529175 469.389343,905.564758 479.830109,896.066772 
	C482.694214,893.461243 484.805023,892.330505 488.220459,895.042542 
	C491.447754,897.605164 497.389526,898.266541 498.253174,901.751953 
	C499.102356,905.178955 494.675629,908.826660 492.566986,912.372559 
	C485.336517,924.531067 477.901855,936.568726 470.738800,948.766235 
	C469.079102,951.592285 467.844635,952.457336 464.700439,950.552063 
	C458.346222,946.701721 458.197754,946.885315 462.206635,940.541199 
	C467.895599,931.538330 473.634399,922.566956 479.336426,913.572266 
	C480.093109,912.378601 481.208740,911.306091 481.085968,909.360535 
	C478.591614,909.261169 477.506409,911.155823 476.130585,912.326294 
	C466.875580,920.200073 457.533691,927.982727 448.537384,936.144897 
	C444.208099,940.072876 441.776825,936.011353 438.556274,934.755371 
	C435.389069,933.520142 435.194031,931.432190 435.965302,928.459961 
	C439.180573,916.069702 442.199799,903.628601 445.312256,891.211548 
	C445.752777,889.454041 446.476440,887.747803 446.036835,885.789734 
	C443.998932,886.527222 443.716309,888.540405 442.831177,890.028259 
	C436.622070,900.465637 430.279053,910.832153 424.416901,921.462891 
	C422.055481,925.745178 420.074280,923.362549 417.859955,921.963562 
	C415.568695,920.515747 412.208832,919.932861 414.948853,915.546753 
	C424.202271,900.734192 433.074615,885.683105 442.044495,870.694397 
	C443.245789,868.687012 444.171448,867.961182 446.670685,869.349731 
	C458.902344,876.145691 458.852509,876.020508 455.406708,889.681580 
	C452.641205,900.645508 450.169708,911.683655 447.498016,923.062378 
	C447.428314,923.435852 447.878021,923.388367 447.878021,923.388367 
	C447.878021,923.388367 447.690643,923.780090 447.857269,923.903687 
z"/>
<path fill="#D7B37B" opacity="1.000000" stroke="none" 
	d="
M729.421753,952.361328 
	C730.875061,959.800110 731.984741,966.882629 733.691223,973.818420 
	C734.716980,977.987122 732.162354,977.974121 729.554626,978.682861 
	C726.702576,979.457947 724.704651,979.357727 724.340515,975.779175 
	C724.193726,974.336365 723.683655,972.930542 723.042358,970.283936 
	C718.743652,981.556946 710.453552,985.190430 700.153076,985.321716 
	C693.558289,985.405823 687.717957,983.268250 682.966492,978.599915 
	C672.711365,968.523987 669.985413,950.043640 676.824158,937.377808 
	C685.792053,920.768616 712.849060,917.920898 723.753601,932.438538 
	C727.861084,937.906982 727.553101,938.673462 721.148071,940.333008 
	C717.609863,941.249756 715.260681,941.429932 712.479980,937.675171 
	C706.863953,930.091736 692.659546,932.626221 687.854248,941.464172 
	C683.293884,949.851746 685.513062,964.091492 692.411499,970.705505 
	C696.992126,975.097351 702.368591,975.747009 708.173523,973.889832 
	C713.484863,972.190674 716.988953,968.705994 718.178650,963.116333 
	C718.807556,960.161438 718.160767,958.565002 714.690979,959.531555 
	C713.257874,959.930725 711.657410,959.800354 710.277283,960.305176 
	C705.772217,961.953186 704.111389,960.182922 703.743286,955.717651 
	C703.527649,953.101501 703.841370,951.795898 706.733521,951.362488 
	C712.652893,950.475525 718.557251,949.411316 724.398193,948.108215 
	C727.927673,947.320740 729.322205,948.558838 729.421753,952.361328 
z"/>
<path fill="#D8B57E" opacity="1.000000" stroke="none" 
	d="
M876.486450,828.389526 
	C888.474548,821.601013 899.463623,822.939636 909.178345,832.122742 
	C924.009094,846.142029 924.642822,861.231384 910.857483,876.178589 
	C906.576294,880.820679 901.887390,885.084412 897.496094,889.628540 
	C896.152710,891.018799 895.336731,891.114563 893.927917,889.685913 
	C881.431030,877.012939 868.880493,864.392578 856.294556,851.807922 
	C854.920471,850.434021 854.839905,849.454590 856.291260,848.150818 
	C863.213379,841.932495 868.538513,834.087036 876.486450,828.389526 
z"/>
<path fill="#D7B37B" opacity="1.000000" stroke="none" 
	d="
M794.754883,954.743408 
	C786.535767,962.011169 777.600037,966.032715 766.693848,963.995117 
	C749.202148,960.727173 740.793091,939.278198 743.486023,925.431458 
	C746.402283,910.436035 763.461975,899.972351 779.172363,903.214844 
	C783.336182,904.074219 786.987366,905.892212 790.195557,908.718567 
	C803.837891,920.737427 805.962585,940.771423 794.754883,954.743408 
z"/>
<path fill="#D8B47C" opacity="1.000000" stroke="none" 
	d="
M862.967834,885.099854 
	C875.718445,906.230164 860.551880,925.779968 842.161743,929.552185 
	C837.983215,930.409302 833.908691,929.743713 829.904175,928.389893 
	C814.284363,923.109253 803.301880,903.068359 808.504089,888.863586 
	C812.673828,877.477844 821.076843,870.346130 832.838135,868.235229 
	C843.866882,866.255737 852.495667,871.531555 859.386536,879.857483 
	C860.653259,881.388062 861.666016,883.128906 862.967834,885.099854 
z"/>
<path fill="#D7B47C" opacity="1.000000" stroke="none" 
	d="
M936.862000,805.835938 
	C934.339661,808.044250 932.186707,810.155457 929.797852,811.953186 
	C924.939880,815.608948 919.638123,816.853516 913.887146,814.097656 
	C907.927917,811.242004 904.872803,806.388855 904.454590,799.869080 
	C903.791565,789.531433 913.190857,776.303711 923.193542,773.493958 
	C924.617004,773.094116 926.127563,772.821716 927.599365,772.814514 
	C930.643372,772.799561 934.946228,773.099915 935.598145,775.594666 
	C936.411804,778.708862 932.951782,781.651123 931.178467,784.569641 
	C930.529419,785.637817 929.349487,784.901489 928.453796,784.583801 
	C921.475586,782.108337 915.079407,790.911133 914.819275,795.917053 
	C914.560913,800.889282 919.035767,804.067505 923.564331,801.888550 
	C926.072266,800.681946 928.282349,798.798401 930.497375,797.055664 
	C933.375488,794.791321 935.976196,792.151855 938.962769,790.052979 
	C944.252808,786.335205 949.989685,784.243225 956.190674,787.886841 
	C962.445129,791.561768 965.571838,797.178650 965.473206,804.464111 
	C965.320801,815.722473 954.429382,828.520264 943.376648,830.411865 
	C941.753357,830.689575 940.036560,830.787354 938.408813,830.590332 
	C935.607422,830.251099 931.394714,829.977173 930.905518,827.688477 
	C930.266602,824.699524 933.782715,822.115845 935.537231,819.381836 
	C936.353149,818.110413 937.652649,819.028503 938.749146,819.193970 
	C946.173523,820.314453 953.648376,814.962158 954.848633,807.631531 
	C955.342529,804.615173 954.625793,801.918823 952.058411,800.097412 
	C949.513672,798.292114 946.652954,798.166565 944.083923,799.930420 
	C941.625916,801.617981 939.433655,803.692444 936.862000,805.835938 
z"/>
<path fill="#D8B47C" opacity="1.000000" stroke="none" 
	d="
M386.030487,851.970825 
	C387.419891,840.077820 397.427765,833.672485 408.089874,837.808655 
	C416.604584,841.111816 422.410492,847.318237 425.330048,856.073792 
	C426.136932,858.493591 426.402374,861.023560 425.864899,863.473450 
	C425.236969,866.335510 424.668243,870.750000 422.071136,870.924316 
	C419.180084,871.118469 416.794983,867.390259 414.327240,865.202576 
	C413.583649,864.543457 414.143219,863.764038 414.367126,862.952332 
	C416.195953,856.322998 413.211731,850.433167 406.807312,847.724915 
	C404.100769,846.580444 401.554535,846.675720 399.408691,848.775391 
	C397.376434,850.763916 397.183807,853.312744 398.415710,855.705261 
	C400.317749,859.399109 402.503906,862.947998 404.606689,866.536621 
	C406.288483,869.406860 408.113678,872.190430 409.130341,875.408203 
	C413.220123,888.352966 403.169312,899.504761 389.811096,896.818848 
	C379.859589,894.817871 369.336334,883.997681 367.634796,873.970215 
	C367.300018,871.997498 367.241882,870.020508 367.709503,868.025513 
	C368.475769,864.756531 369.299255,860.177856 372.257202,859.883545 
	C374.566589,859.653809 377.306610,863.580994 379.825287,865.696716 
	C381.141327,866.802124 379.941620,867.775269 379.569489,868.783936 
	C376.863068,876.118530 383.375305,886.315857 391.144012,886.910156 
	C396.488647,887.319031 400.179993,882.335632 398.206360,877.242004 
	C396.504547,872.850037 393.467316,869.231262 390.966888,865.306091 
	C388.432312,861.327393 386.396637,857.186951 386.030487,851.970825 
z"/>
<path fill="#D6B27C" opacity="1.000000" stroke="none" 
	d="
M522.007690,919.370361 
	C523.757324,916.203552 525.622986,911.817078 528.297180,911.828918 
	C532.714722,911.848511 537.149048,914.184143 541.518921,915.708130 
	C543.121399,916.266968 542.656189,917.954224 542.682007,919.215942 
	C543.065674,937.995422 543.371155,956.776794 543.821655,975.554626 
	C543.895386,978.626648 542.726807,978.954956 540.316162,977.916199 
	C540.018921,977.788086 539.660767,977.809326 539.338379,977.730591 
	C531.430176,975.799866 530.980591,975.761108 531.651917,967.822571 
	C532.140808,962.042114 530.331543,959.100830 524.653503,958.362244 
	C523.354797,958.193298 522.113220,957.593750 520.842102,957.203003 
	C517.048096,956.036865 512.945312,953.408386 509.542877,954.120605 
	C506.054749,954.850708 504.130127,959.623474 501.965393,962.911255 
	C499.787109,966.219543 497.554291,964.067322 495.492279,963.383850 
	C488.193665,960.964600 488.238922,960.888977 492.898438,955.097595 
	C499.048096,947.454102 505.169617,939.787903 511.590820,931.952637 
	C515.446716,932.529541 518.082031,934.449097 519.614380,938.242126 
	C520.400879,944.007263 521.614319,945.316101 526.276855,946.020813 
	C528.014709,946.283508 529.500854,946.026367 529.503113,944.082336 
	C529.509766,938.238647 530.533691,932.361328 528.809082,926.338623 
	C525.955566,924.407349 522.769409,923.312866 522.007690,919.370361 
z"/>
<path fill="#D7B47D" opacity="1.000000" stroke="none" 
	d="
M567.055115,953.883301 
	C568.494812,944.911987 569.962891,936.385071 571.133301,927.817505 
	C571.546570,924.792175 572.213684,923.462341 575.729065,924.216736 
	C583.880371,925.966064 583.939514,925.787354 582.599792,934.223022 
	C580.824219,945.403015 578.987854,956.573425 577.227234,967.755798 
	C576.213013,974.197754 576.260132,974.182556 582.521118,975.039795 
	C588.949402,975.919922 595.355713,976.991028 601.803040,977.687805 
	C604.388733,977.967163 605.425842,978.711670 604.755737,981.370056 
	C604.350769,982.976501 604.077026,984.654663 604.043152,986.306763 
	C603.995850,988.609680 603.002197,989.029724 600.882446,988.700562 
	C589.207825,986.887512 577.527466,985.099487 565.820129,983.517029 
	C562.547180,983.074707 562.818604,981.293335 563.184021,978.985535 
	C564.485352,970.767334 565.711670,962.537231 567.055115,953.883301 
z"/>
<path fill="#D7B37B" opacity="1.000000" stroke="none" 
	d="
M622.485352,943.019470 
	C622.497986,940.856934 622.506775,939.190857 622.521057,937.524719 
	C622.586060,929.926575 625.111267,928.093262 632.616333,929.851440 
	C635.236694,930.465332 634.395569,932.323792 634.400024,933.768188 
	C634.440735,947.096436 634.566650,960.429016 634.263245,973.751038 
	C634.169067,977.885742 635.179199,979.254761 639.428223,979.012451 
	C646.071838,978.633606 652.757507,979.048828 659.413818,978.808228 
	C662.385925,978.700745 663.446899,979.320435 663.406738,982.558044 
	C663.317871,989.729248 663.525269,989.739868 656.313965,989.757568 
	C646.483643,989.781738 636.650085,989.651917 626.824890,989.884583 
	C623.397827,989.965698 622.249390,989.088135 622.308838,985.500366 
	C622.540771,971.508362 622.453003,957.511169 622.485352,943.019470 
z"/>
<path fill="#D6B37C" opacity="1.000000" stroke="none" 
	d="
M540.671448,243.005814 
	C542.400818,246.427597 539.345154,246.233597 538.062744,246.613678 
	C536.120850,247.189224 534.305908,249.258881 531.791748,246.756668 
	C528.300720,243.282288 522.988098,243.751999 519.262390,247.132614 
	C517.676086,248.572021 516.681335,250.276321 517.365662,252.441956 
	C518.112427,254.805359 519.937866,255.895126 522.356445,255.765579 
	C526.670898,255.534500 530.974854,255.087646 535.290588,254.901688 
	C542.753845,254.580109 547.062927,257.143433 549.216675,262.993164 
	C551.443054,269.039886 549.631714,275.245392 544.130432,279.395386 
	C538.449524,283.680908 531.884216,285.288818 524.855835,284.756897 
	C522.016663,284.541962 519.224304,283.590576 517.185730,281.479187 
	C515.491760,279.724701 512.490234,277.962891 514.144104,275.111450 
	C515.703613,272.422455 521.575195,272.377472 523.806885,274.456299 
	C527.858093,278.229980 536.943787,276.898438 539.734802,272.121918 
	C541.670654,268.808990 539.842712,264.734436 535.886597,264.265259 
	C533.114868,263.936523 530.251587,264.324768 527.432800,264.466003 
	C525.111816,264.582306 522.794312,264.973572 520.478516,264.948334 
	C515.306763,264.892029 510.917419,263.167511 508.725311,258.088593 
	C506.399841,252.700760 507.087921,247.471359 511.102509,243.212524 
	C516.603149,237.377121 523.643066,235.266296 531.551453,236.277710 
	C535.619080,236.797928 538.625671,239.030411 540.671448,243.005814 
z"/>
<path fill="#D5B27A" opacity="1.000000" stroke="none" 
	d="
M478.810638,306.256409 
	C472.554413,293.707001 466.587097,281.423950 460.431488,269.236053 
	C459.001617,266.404999 459.358093,264.992157 462.315216,263.589417 
	C469.834747,260.022522 477.199890,256.130096 484.625458,252.365311 
	C486.701538,251.312744 488.618042,249.810455 489.993713,253.481232 
	C491.110229,256.460388 491.849762,258.464478 487.951233,260.014496 
	C483.171906,261.914673 478.754913,264.708130 474.036530,266.786926 
	C471.529846,267.891266 471.434082,268.944427 472.537018,271.254852 
	C475.659454,277.795685 475.547974,277.861816 481.980896,274.667328 
	C485.112701,273.112122 488.289856,271.629456 491.317261,269.889191 
	C493.582672,268.586945 495.150482,268.264008 496.155701,271.279297 
	C496.895538,273.498535 499.066803,275.491699 495.057983,277.085754 
	C490.742462,278.801758 486.757294,281.330750 482.534271,283.304535 
	C480.309692,284.344299 479.660004,285.242798 480.844360,287.786560 
	C484.464569,295.562103 484.320160,295.630096 491.901062,291.902893 
	C495.788208,289.991699 499.667664,288.064697 503.564697,286.173859 
	C504.688629,285.628540 506.176147,284.443787 506.717407,286.576538 
	C507.236908,288.623413 510.300934,291.370087 507.960754,292.614349 
	C498.517181,297.635406 489.328217,303.282257 478.810638,306.256409 
z"/>
<path fill="#D6B27C" opacity="1.000000" stroke="none" 
	d="
M691.045410,253.610855 
	C690.641357,246.608673 691.152710,240.193253 693.866882,234.096527 
	C697.865112,225.115463 705.725952,220.728043 714.708313,222.503616 
	C724.173157,224.374557 729.752625,231.250671 730.012573,241.271057 
	C730.156982,246.837082 729.200623,252.214081 727.262268,257.399475 
	C723.817688,266.614807 717.045898,270.891418 707.551025,269.988831 
	C698.458435,269.124481 692.866089,263.714050 691.045410,253.610855 
z"/>
<path fill="#D4B17B" opacity="1.000000" stroke="none" 
	d="
M795.324280,265.381836 
	C802.563354,265.026855 808.026855,268.051910 811.331116,273.953461 
	C814.799805,280.148895 813.049805,286.255798 808.718384,291.538788 
	C804.346313,296.871277 798.585205,298.188263 792.061646,296.535370 
	C783.733459,294.425171 777.925659,288.613678 777.270630,281.512695 
	C777.056152,279.187500 776.669250,276.234894 779.378235,275.106689 
	C781.289734,274.310577 786.471008,278.785645 786.708740,280.900726 
	C787.270081,285.897156 791.165405,289.282745 795.760071,288.767700 
	C800.186096,288.271576 803.474243,283.968018 803.191101,279.041992 
	C802.928894,274.480347 799.357971,271.238770 794.302795,271.732849 
	C791.052307,272.050537 788.188599,272.010895 785.283264,270.310608 
	C783.459412,269.243225 782.957764,268.427216 784.089111,266.505463 
	C787.631592,260.488739 791.108643,254.429962 794.440613,248.294891 
	C795.504578,246.336014 796.529724,246.275894 798.365234,247.144653 
	C805.276733,250.415909 812.206909,253.658340 819.232117,256.673859 
	C821.976379,257.851868 821.513550,259.284698 820.446350,261.258667 
	C819.443665,263.113312 819.042847,265.476044 815.882996,263.850983 
	C812.044495,261.876953 807.870972,260.527649 804.125183,258.408112 
	C800.565308,256.393768 798.410034,256.848572 796.964172,260.726288 
	C796.506165,261.954651 795.658813,263.037811 794.924194,264.529175 
	C794.561707,265.377289 794.680969,265.434601 795.324280,265.381836 
z"/>
<path fill="#D6B37C" opacity="1.000000" stroke="none" 
	d="
M662.473511,251.485535 
	C660.723083,252.734192 659.277588,253.769928 656.571899,255.708588 
	C663.929626,256.175079 669.787354,256.871918 675.636902,256.808563 
	C679.885986,256.762604 678.856201,259.317963 679.031250,261.690338 
	C679.243408,264.566895 678.109497,265.388367 675.292725,265.236816 
	C666.001770,264.737122 656.700317,264.384338 647.398376,264.167389 
	C645.123657,264.114349 644.721863,263.395355 644.769958,261.267151 
	C644.864258,257.093262 646.928162,254.047699 649.630859,251.221497 
	C653.473755,247.203094 658.396851,244.661316 662.855652,241.482513 
	C665.841980,239.353485 668.888306,237.206772 669.363525,233.101089 
	C669.803284,229.301437 668.551636,226.499603 664.586548,225.565628 
	C660.870117,224.690186 657.238464,225.849060 656.608215,229.546509 
	C655.619019,235.350021 652.008423,233.752838 648.570068,233.548157 
	C646.559998,233.428497 646.236145,232.553955 646.493835,230.621841 
	C647.429993,223.602554 651.675476,219.222580 659.565186,217.516785 
	C667.023010,215.904343 675.473145,219.619141 678.260803,225.735596 
	C681.317200,232.441650 679.066345,240.111542 672.387207,245.016312 
	C669.311462,247.274933 665.989075,249.197586 662.473511,251.485535 
z"/>
<path fill="#D7B47C" opacity="1.000000" stroke="none" 
	d="
M761.743164,274.331665 
	C765.833862,275.271759 768.244507,276.571808 765.895630,281.108154 
	C764.756348,283.308289 763.976562,283.963531 761.478149,283.136871 
	C752.960876,280.318665 744.371033,277.707703 735.749878,275.222290 
	C733.182251,274.482056 732.646118,273.528870 733.642395,271.028107 
	C734.947083,267.753479 737.080872,265.416687 740.046631,263.672485 
	C744.532104,261.034485 749.462219,259.543701 754.369385,257.969086 
	C757.550049,256.948486 760.674500,255.722061 762.987854,253.175964 
	C765.959534,249.905334 765.866028,245.429123 762.891785,242.958633 
	C759.480164,240.124924 755.042542,240.534409 752.619080,244.607086 
	C749.554260,249.757462 746.292236,245.743561 743.819702,244.731735 
	C741.173462,243.648880 743.930542,241.290222 744.713257,239.872772 
	C747.679932,234.500229 754.291138,231.883194 760.605835,233.201996 
	C768.669922,234.886154 773.965759,239.596710 774.918457,245.932693 
	C775.925659,252.631485 772.752747,258.716736 766.504028,262.038330 
	C762.208801,264.321533 757.457642,265.333160 752.899902,266.883667 
	C751.046448,267.514221 749.020569,267.813141 747.387573,269.991882 
	C752.202026,271.443146 756.783997,272.824310 761.743164,274.331665 
z"/>
<path fill="#D6B37C" opacity="1.000000" stroke="none" 
	d="
M573.389771,268.730835 
	C571.247681,258.240051 569.115723,248.177017 567.254211,238.064194 
	C566.741089,235.276367 565.621338,234.447861 562.980469,235.100861 
	C560.891174,235.617462 558.628418,235.618744 556.658997,236.396454 
	C552.197632,238.158264 551.331177,235.710602 550.736328,232.124786 
	C550.357666,229.841507 550.833984,228.807098 553.171143,228.358978 
	C564.260498,226.232666 575.351562,224.102112 586.388733,221.725418 
	C589.293457,221.099930 589.767944,222.836380 589.621216,224.565155 
	C589.467041,226.382339 592.481018,229.315491 588.138733,230.034454 
	C587.158203,230.196808 586.204834,230.516525 585.229614,230.718643 
	C576.262573,232.577072 576.293152,232.567993 578.121826,241.758835 
	C579.806946,250.228119 581.283813,258.741394 583.124695,267.175842 
	C583.820374,270.363403 582.243042,271.122864 579.833313,271.115448 
	C577.592773,271.108551 574.107361,274.504517 573.389771,268.730835 
z"/>
<path fill="#DCBB86" opacity="1.000000" stroke="none" 
	d="
M521.719116,919.186768 
	C524.604736,920.686584 527.212830,922.368530 530.189148,924.148438 
	C530.076111,931.886047 525.364563,936.534363 518.890137,940.142578 
	C517.819031,936.364868 513.126587,935.955261 512.039185,932.105469 
	C515.066162,927.638794 518.253845,923.503845 521.719116,919.186768 
z"/>
<path fill="#D6B27C" opacity="1.000000" stroke="none" 
	d="
M612.641113,258.775787 
	C613.284302,264.309204 611.520752,266.952667 607.398376,267.217743 
	C603.779236,267.450470 601.133179,264.879333 601.171875,261.149750 
	C601.198853,258.550995 602.514282,256.794830 604.863464,255.842926 
	C608.107239,254.528549 610.625183,255.550842 612.641113,258.775787 
z"/>
<path fill="#181715" opacity="1.000000" stroke="none" 
	d="
M954.396362,471.944733 
	C954.442871,472.841919 954.184509,473.716125 953.152832,473.984741 
	C953.152283,473.380127 953.151733,472.775543 953.285889,472.014801 
	C953.637756,471.874634 953.854919,471.890564 954.396362,471.944733 
z"/>
<path fill="#111212" opacity="1.000000" stroke="none" 
	d="
M744.788208,644.758423 
	C741.596313,651.020996 739.045776,657.216675 735.013489,662.570007 
	C733.118408,665.086060 731.157043,667.620056 728.860779,669.752991 
	C722.125916,676.008789 717.091614,674.711243 714.022217,665.970703 
	C710.578064,656.163208 710.721130,646.080566 711.974609,635.914856 
	C716.435730,599.734375 727.297913,565.813599 747.455505,535.173584 
	C751.408691,529.164734 756.100159,523.758423 761.698425,519.211121 
	C766.312561,515.463196 771.448669,512.759949 777.561584,512.775146 
	C779.637390,512.780334 782.186218,512.847839 781.278992,516.381592 
	C770.243713,559.364563 762.251038,603.209778 744.788208,644.758423 
z"/>
<path fill="#111212" opacity="1.000000" stroke="none" 
	d="
M389.427124,723.240112 
	C392.130219,685.760437 402.856659,651.296753 422.394684,619.679565 
	C427.957245,610.678101 434.698059,602.676025 443.736298,596.879089 
	C447.171082,594.676086 450.874969,593.164978 455.009277,593.402283 
	C457.510712,593.545776 459.568176,594.290833 458.675842,597.748169 
	C448.083038,638.790894 440.410919,680.665466 423.992188,720.046570 
	C419.820984,730.051453 415.141541,739.860474 407.408630,747.734253 
	C404.668152,750.524658 401.864319,754.201416 397.329437,753.095337 
	C392.375793,751.887085 392.162109,746.935913 391.238068,743.033691 
	C389.740631,736.710144 389.142975,730.228027 389.427124,723.240112 
z"/>
<path fill="#101112" opacity="1.000000" stroke="none" 
	d="
M853.746826,638.156616 
	C853.950439,638.411255 854.183411,638.698608 854.416382,638.985901 
	C854.237671,638.889160 854.058899,638.792358 853.811279,638.394775 
	C853.742432,638.093872 853.776245,638.189331 853.746826,638.156616 
z"/>
<path fill="#101112" opacity="1.000000" stroke="none" 
	d="
M446.731140,883.830078 
	C446.875946,884.477539 446.930267,885.002991 446.255554,884.721680 
	C446.210022,884.702698 446.452698,883.992676 446.731140,883.830078 
z"/>
<path fill="#101112" opacity="1.000000" stroke="none" 
	d="
M481.750000,908.750000 
	C481.222687,908.727112 480.850800,908.435242 481.414490,908.126404 
	C481.512146,908.072876 481.800018,908.366638 481.750000,908.750000 
z"/>
<path fill="#101112" opacity="1.000000" stroke="none" 
	d="
M447.880768,923.873657 
	C447.846924,924.231079 447.669891,924.434753 447.492859,924.638428 
	C447.410370,924.369873 447.327881,924.101257 447.336853,923.634277 
	C447.428314,923.435852 447.737610,923.719971 447.880768,923.873657 
z"/>
<path fill="#131313" opacity="1.000000" stroke="none" 
	d="
M879.235291,839.029541 
	C885.564331,834.394104 891.571899,834.923218 897.580444,838.867432 
	C900.394470,840.714539 902.763367,843.033386 904.755310,845.718262 
	C912.074280,855.583252 908.770020,869.189697 897.835571,874.765320 
	C896.307983,875.544250 895.742065,874.694031 894.948303,873.896729 
	C887.093262,866.006165 879.283447,858.069824 871.356812,850.251892 
	C869.813660,848.729858 870.323425,847.896362 871.576294,846.689392 
	C874.087341,844.270264 876.489807,841.738464 879.235291,839.029541 
z"/>
<path fill="#131313" opacity="1.000000" stroke="none" 
	d="
M758.193359,941.599976 
	C755.964172,936.628296 754.631592,931.889954 755.535278,926.737427 
	C756.763489,919.734192 760.920349,915.531311 767.695435,913.714600 
	C774.100891,911.996948 779.165222,914.296997 783.245972,919.074829 
	C787.238525,923.749451 789.558777,929.230164 790.047485,935.391846 
	C790.707947,943.719910 786.689697,950.318420 779.562683,952.784790 
	C771.910706,955.432861 765.668945,953.138794 760.667664,945.795959 
	C759.825928,944.560120 759.119507,943.232117 758.193359,941.599976 
z"/>
<path fill="#111212" opacity="1.000000" stroke="none" 
	d="
M820.350464,902.338074 
	C816.242859,888.789612 825.403931,876.846924 837.596802,879.278381 
	C847.354797,881.224182 857.238342,894.905701 856.029724,904.794434 
	C854.707703,915.610840 841.342346,921.979492 831.908447,916.186096 
	C826.669739,912.969055 822.990417,908.312683 820.350464,902.338074 
z"/>
<path fill="#181715" opacity="1.000000" stroke="none" 
	d="
M518.380554,940.383545 
	C522.429810,935.016052 526.351318,929.953064 530.415161,924.568237 
	C532.640503,924.044556 531.991455,925.624146 531.995667,926.606323 
	C532.024292,933.261658 531.822449,939.922607 532.035461,946.570862 
	C532.152588,950.225830 530.787354,950.390625 527.945190,949.247559 
	C525.482910,948.257202 522.933655,947.359314 520.338562,946.850220 
	C515.788269,945.957458 514.584900,944.222778 518.380554,940.383545 
z"/>
<path fill="#131313" opacity="1.000000" stroke="none" 
	d="
M709.006897,262.020752 
	C703.497253,261.384979 701.091309,258.272858 700.750122,253.337524 
	C700.343506,247.455612 701.083557,241.716187 703.574097,236.349014 
	C705.382202,232.452621 708.302490,229.846954 712.987366,230.636429 
	C717.655029,231.422974 719.584595,234.689514 719.957458,239.085464 
	C720.469788,245.124329 719.946960,251.024689 717.079590,256.494446 
	C715.463806,259.576630 713.147400,261.829987 709.006897,262.020752 
z"/>
<path fill="#101112" opacity="1.000000" stroke="none" 
	d="
M795.354797,265.438477 
	C795.005188,265.740234 794.208069,266.418488 794.644653,264.978729 
	C794.971802,264.994598 795.084839,265.118317 795.354797,265.438477 
z"/>
</svg>